<?xml version="1.0" encoding="UTF-8" standalone="no"?>
<!-- Created with Inkscape (http://www.inkscape.org/) -->

<svg
   xmlns:dc="http://purl.org/dc/elements/1.1/"
   xmlns:cc="http://creativecommons.org/ns#"
   xmlns:rdf="http://www.w3.org/1999/02/22-rdf-syntax-ns#"
   xmlns:svg="http://www.w3.org/2000/svg"
   xmlns="http://www.w3.org/2000/svg"
   version="1.1"
   width="239.25874"
   height="60.252499"
   id="svg2">
  <defs
     id="defs4">
    <clipPath
       id="clipPath3231">
      <path
         d="m 0,841.89 595.28,0 L 595.28,0 0,0 0,841.89 z"
         id="path3233" />
    </clipPath>
    <clipPath
       id="clipPath2999">
      <path
         d="m 0,841.89 595.28,0 L 595.28,0 0,0 0,841.89 z"
         id="path3001" />
    </clipPath>
  </defs>
  <metadata
     id="metadata7">
    <rdf:RDF>
      <cc:Work
         rdf:about="">
        <dc:format>image/svg+xml</dc:format>
        <dc:type
           rdf:resource="http://purl.org/dc/dcmitype/StillImage" />
        <dc:title></dc:title>
      </cc:Work>
    </rdf:RDF>
  </metadata>
  <g
     transform="translate(-11.26316,-6.47044)"
     id="layer1">
    <g
       transform="matrix(1.25,0,0,-1.25,71.51691,66.36919)"
       id="g3035">
      <path
         d="m 0,0 c 0,-0.156 -0.128,-0.283 -0.283,-0.283 l -47.636,0 c -0.156,0 -0.284,0.127 -0.284,0.283 l 0,47.636 c 0,0.156 0.128,0.283 0.284,0.283 l 47.636,0 C -0.128,47.919 0,47.792 0,47.636 L 0,0 z"
         id="path3037"
         style="fill:#007ada;fill-opacity:1;fill-rule:nonzero;stroke:none" />
    </g>
    <g
       transform="matrix(1.25,0,0,-1.25,34.243785,48.76519)"
       id="g3039">
      <path
         d="m 0,0 c 2.315,0 4.009,1.406 4.009,4.588 l 0,10.293 C 4.009,18.064 2.315,19.47 0,19.47 l -3.72,0 c -0.331,0 -0.497,-0.207 -0.497,-0.497 l 0,-18.477 C -4.217,0.207 -4.051,0 -3.72,0 L 0,0 z m -7.44,-4.051 c -0.827,0 -1.323,0.454 -1.323,1.282 l 0,25.008 c 0,0.827 0.496,1.282 1.323,1.282 l 7.44,0 c 4.712,0 8.557,-2.977 8.557,-8.64 l 0,-10.293 C 8.557,-1.075 4.712,-4.051 0,-4.051 l -7.44,0 z"
         id="path3041"
         style="fill:#ffffff;fill-opacity:1;fill-rule:nonzero;stroke:none" />
    </g>
    <g
       transform="matrix(1.25,0,0,-1.25,50.364785,28.717065)"
       id="g3043">
      <path
         d="m 0,0 c 0,0.786 0.454,1.24 1.24,1.24 l 1.901,0 c 0.785,0 1.24,-0.454 1.24,-1.24 l 0,-0.537 c 0.042,0.124 1.2,2.191 3.927,2.191 0.785,0 0.993,-0.414 0.993,-0.951 l 0,-1.778 C 9.301,-1.943 8.887,-2.356 7.647,-2.397 5.745,-2.48 4.381,-3.679 4.381,-6.076 l 0,-12.774 c 0,-0.785 -0.455,-1.24 -1.24,-1.24 l -1.901,0 C 0.454,-20.09 0,-19.635 0,-18.85 L 0,0 z"
         id="path3045"
         style="fill:#ffffff;fill-opacity:1;fill-rule:nonzero;stroke:none" />
    </g>
    <g
       transform="matrix(1.25,0,0,-1.25,-165.79034,772.97544)"
       id="g3227"
       style="fill:#ffffff">
      <g
         clip-path="url(#clipPath3231)"
         id="g3229"
         style="fill:#007ada">
        <g
           transform="translate(202.7726,601.9462)"
           id="g3235"
           style="fill:#007ada">
          <path
             d="m 0,0 c -0.237,0 -0.379,-0.095 -0.379,-0.379 l 0,-11.447 c 0,-0.283 0.142,-0.378 0.379,-0.378 l 4.635,0 c 4.115,0 6.244,2.317 6.244,6.101 C 10.879,-2.318 8.75,0 4.635,0 L 0,0 z m -0.379,-27.72 c 0,-0.472 -0.236,-0.898 -0.898,-0.898 l -1.419,0 c -0.663,0 -0.9,0.426 -0.9,0.898 l 0,29.754 c 0,0.473 0.237,0.899 0.9,0.899 l 7.331,0 c 5.866,0 9.461,-3.454 9.461,-9.036 0,-5.581 -3.595,-9.034 -9.461,-9.034 l -4.635,0 c -0.237,0 -0.379,-0.094 -0.379,-0.379 l 0,-12.204 z"
             id="path3237"
             style="fill:#007ada;fill-opacity:1;fill-rule:nonzero;stroke:none" />
        </g>
        <g
           transform="translate(221.2687,581.8896)"
           id="g3239"
           style="fill:#007ada">
          <path
             d="m 0,0 0,22.091 c 0,0.472 0.237,0.898 0.899,0.898 l 1.419,0 c 0.662,0 0.899,-0.426 0.899,-0.898 L 3.217,0 c 0,-3.5 1.798,-6.338 5.771,-6.338 3.973,0 5.771,2.838 5.771,6.338 l 0,22.091 c 0,0.472 0.236,0.898 0.898,0.898 l 1.419,0 c 0.662,0 0.9,-0.426 0.9,-0.898 L 17.976,0 c 0,-5.108 -2.933,-9.271 -8.988,-9.271 C 2.934,-9.271 0,-5.108 0,0"
             id="path3241"
             style="fill:#007ada;fill-opacity:1;fill-rule:nonzero;stroke:none" />
        </g>
        <g
           transform="translate(248.421,588.1806)"
           id="g3243"
           style="fill:#007ada">
          <path
             d="m 0,0 c -0.236,0 -0.378,-0.095 -0.378,-0.378 l 0,-11.163 c 0,-0.284 0.142,-0.379 0.378,-0.379 l 5.109,0 c 4.021,0 6.338,2.176 6.338,5.96 C 11.447,-2.176 9.13,0 5.109,0 L 0,0 z m 4.068,2.886 c 3.926,0 6.339,1.75 6.339,5.439 0,3.69 -2.413,5.441 -6.339,5.441 l -4.068,0 c -0.236,0 -0.378,-0.095 -0.378,-0.379 l 0,-10.122 C -0.378,2.98 -0.236,2.886 0,2.886 l 4.068,0 z m -6.763,-17.739 c -0.663,0 -0.9,0.426 -0.9,0.899 l 0,29.754 c 0,0.472 0.237,0.898 0.9,0.898 l 6.763,0 c 5.677,0 9.555,-2.791 9.555,-8.278 0,-3.169 -1.276,-5.44 -3.452,-6.764 2.743,-1.372 4.493,-3.927 4.493,-7.711 0,-5.439 -3.736,-8.798 -9.555,-8.798 l -7.804,0 z"
             id="path3245"
             style="fill:#007ada;fill-opacity:1;fill-rule:nonzero;stroke:none" />
        </g>
        <g
           transform="translate(268.4796,573.3281)"
           id="g3247"
           style="fill:#007ada">
          <path
             d="m 0,0 c -0.663,0 -0.899,0.426 -0.899,0.898 l 0,29.754 c 0,0.473 0.236,0.899 0.899,0.899 l 1.419,0 c 0.662,0 0.898,-0.426 0.898,-0.899 l 0,-27.34 c 0,-0.238 0.095,-0.379 0.378,-0.379 l 10.785,0 c 0.663,0 0.9,-0.426 0.9,-0.899 l 0,-1.136 C 14.38,0.426 14.143,0 13.48,0 L 0,0 z"
             id="path3249"
             style="fill:#007ada;fill-opacity:1;fill-rule:nonzero;stroke:none" />
        </g>
        <g
           transform="translate(285.9347,603.9804)"
           id="g3251"
           style="fill:#007ada">
          <path
             d="m 0,0 c 0,0.473 0.236,0.898 0.899,0.898 l 1.419,0 C 2.98,0.898 3.217,0.473 3.217,0 l 0,-29.754 c 0,-0.473 -0.237,-0.898 -0.899,-0.898 l -1.419,0 C 0.236,-30.652 0,-30.227 0,-29.754 L 0,0 z"
             id="path3253"
             style="fill:#007ada;fill-opacity:1;fill-rule:nonzero;stroke:none" />
        </g>
        <g
           transform="translate(293.9298,597.5937)"
           id="g3255"
           style="fill:#007ada">
          <path
             d="m 0,0 c 0,4.636 3.358,7.994 8.515,7.994 3.169,0 5.629,-1.182 6.527,-1.986 0.331,-0.331 0.379,-0.804 0.379,-1.088 l 0,-1.23 c 0,-0.378 -0.284,-0.663 -0.663,-0.663 -0.709,0 -2.554,2.035 -6.243,2.035 C 5.487,5.062 3.074,3.501 3.074,0 c 0,-6.764 13.482,-6.386 13.482,-16.366 0,-4.872 -3.312,-8.61 -9.46,-8.61 -3.548,0 -5.867,0.947 -7.049,1.798 -0.662,0.473 -0.899,0.993 -0.899,1.467 l 0,1.183 c 0,0.378 0.331,0.709 0.71,0.709 0.378,0 0.615,-0.142 1.04,-0.426 0.71,-0.473 3.028,-1.797 5.914,-1.797 3.736,0 6.575,1.75 6.575,5.534 C 13.387,-8.75 0,-9.696 0,0"
             id="path3257"
             style="fill:#007ada;fill-opacity:1;fill-rule:nonzero;stroke:none" />
        </g>
        <g
           transform="translate(317.7238,574.2265)"
           id="g3259"
           style="fill:#007ada">
          <path
             d="m 0,0 c 0,-0.473 -0.236,-0.898 -0.898,-0.898 l -1.419,0 c -0.663,0 -0.9,0.425 -0.9,0.898 l 0,29.754 c 0,0.473 0.237,0.898 0.9,0.898 l 1.419,0 C -0.236,30.652 0,30.227 0,29.754 L 0,17.266 c 0,-0.285 0.142,-0.379 0.379,-0.379 l 11.351,0 c 0.238,0 0.379,0.094 0.379,0.379 l 0,12.488 c 0,0.473 0.237,0.898 0.899,0.898 l 1.419,0 c 0.663,0 0.899,-0.425 0.899,-0.898 L 15.326,0 c 0,-0.473 -0.236,-0.898 -0.899,-0.898 l -1.419,0 c -0.662,0 -0.899,0.425 -0.899,0.898 l 0,13.576 c 0,0.283 -0.141,0.378 -0.379,0.378 l -11.351,0 C 0.142,13.954 0,13.859 0,13.576 L 0,0 z"
             id="path3261"
             style="fill:#007ada;fill-opacity:1;fill-rule:nonzero;stroke:none" />
        </g>
      </g>
    </g>
  </g>
</svg>
